<?xml version="1.0" encoding="UTF-8"?>
<svg id="Layer_8" data-name="Layer 8" xmlns="http://www.w3.org/2000/svg" viewBox="0 0 444.74 562.02">
  <defs>
    <style>
      .cls-1 {
        stroke-miterlimit: 10;
        stroke-width: 2px;
      }

      .cls-1, .cls-2 {
        fill: none;
        stroke: #000;
      }

      .cls-2 {
        stroke-linecap: round;
        stroke-linejoin: round;
        stroke-width: 3px;
      }
    </style>
  </defs>
  <path class="cls-1" d="m181.78,479.09h17.07l.02,28.15,21.11-18.6s1.51-1.51,3.02-.5,1.01,3.02,1.01,3.02l.08,16.08,21.03-18.09s1.01-1.51,2.51-1.51,2.01,1.51,2.01,2.01v17.59l21.11-18.6s2.01-1.51,3.02-1.01,1.01,1.51,1.01,4.52v62.88s1.01,5.98-9.55,5.98h-77.38s-6.05-.74-6.05-7.16v-74.77Z"/>
  <path class="cls-1" d="m181.78,473.46h17.07v-5.64s-.48-2.8-7.01-2.8-10.05.11-10.05,3.32v5.11Z"/>
  <rect class="cls-1" x="190.33" y="524.33" width="8.54" height="8.54" rx="2.74" ry="2.74"/>
  <rect class="cls-1" x="207.41" y="524.33" width="8.54" height="8.54" rx="2.74" ry="2.74"/>
  <rect class="cls-1" x="224" y="524.33" width="8.54" height="8.54" rx="2.74" ry="2.74"/>
  <rect class="cls-1" x="241.09" y="524.33" width="8.54" height="8.54" rx="2.74" ry="2.74"/>
  <rect class="cls-1" x="258.18" y="524.33" width="8.54" height="8.54" rx="2.74" ry="2.74"/>
  <rect class="cls-1" x="190.33" y="540.92" width="8.54" height="8.54" rx="2.74" ry="2.74"/>
  <rect class="cls-1" x="207.41" y="540.92" width="8.54" height="8.54" rx="2.74" ry="2.74"/>
  <rect class="cls-1" x="224" y="540.92" width="8.54" height="8.54" rx="2.74" ry="2.74"/>
  <rect class="cls-1" x="241.09" y="540.92" width="8.54" height="8.54" rx="2.74" ry="2.74"/>
  <rect class="cls-1" x="258.18" y="540.92" width="8.54" height="8.54" rx="2.74" ry="2.74"/>
  <path class="cls-1" d="m194.81,99.7h68.93v-23.2s-5.35-19.65-19.86-19.65h-32.48s-18.66,7.6-18.66,20.04v22.81h2.07Z"/>
  <path class="cls-1" d="m221.19,57.34s-3.06,10.87,7.05,10.87,7.38-10.87,7.38-10.87"/>
  <polyline class="cls-1" points="224.23 67.37 219 88.64 228.24 99.7 238.35 88.64 232.28 67.37"/>
  <ellipse class="cls-1" cx="228.33" cy="27.13" rx="19" ry="22.11"/>
  <path class="cls-2" d="m31.43,342.05l-27.09,29.22s-4.18,4.3.98,9.46,10.75,0,10.75,0l28.25-27.72s8.7,3.22,17.08-1.93,9.35-17.08,7.73-22.24l-12.57,11.28-10.31-10.31,11.28-12.25s-10.96-4.51-20.3,4.19c-9.35,8.7-4.51,16.44-5.8,20.3Z"/>
  <rect x="302.24" y="517.52" width="113" height="14"/>
  <rect x="398.24" y="419.52" width="17" height="112"/>
  <polygon points="406.91 392.69 383.74 419.52 430.09 419.52 406.91 392.69"/>
  <rect x="398.74" y="192.63" width="17" height="123.39"/>
  <rect x="351.85" y="142.19" width="17" height="111.22" transform="translate(162.55 558.15) rotate(-90)"/>
  <polygon points="282.67 197.54 309.5 220.72 309.5 174.37 282.67 197.54"/>
  <rect x="40.74" y="195.63" width="17" height="95.39"/>
  <rect x="99" y="128.13" width="17" height="134" transform="translate(302.63 87.63) rotate(90)"/>
  <polygon points="48.78 304.85 71.96 278.02 25.61 278.02 48.78 304.85"/>
  <rect x="91.65" y="468.17" width="17" height="112.82" transform="translate(-424.43 624.74) rotate(-90)"/>
  <rect x="35.74" y="399.02" width="17" height="134"/>
  <polygon points="170.39 525.04 143.56 501.87 143.56 548.22 170.39 525.04"/>
  <rect class="cls-1" x="372.74" y="334.02" width="71" height="32"/>
  <path class="cls-1" d="m379.74,346.02s4-1,5-5h47.43s1.35,5,4.96,5v8s-4.39,2-4.39,5h-48.83s-.17-4-4.17-4v-9Z"/>
  <circle class="cls-1" cx="393.74" cy="350.02" r="2"/>
  <circle class="cls-1" cx="423.74" cy="350.02" r="2"/>
  <circle class="cls-1" cx="408.56" cy="350.36" r="4.66"/>
  <polyline class="cls-1" points="365.98 341.02 365.98 372.67 437.13 372.67"/>
  <polyline class="cls-1" points="358.74 348.02 358.74 379.02 430.54 379.02"/>
  <path class="cls-1" d="m269.5,201.57v-12.41h-8.74c-.69-3.25-1.95-6.3-3.65-9.03l6.26-6.26-8.77-8.77-6.18,6.18c-2.84-1.84-6.03-3.18-9.45-3.91v-8.74h-12.41v8.84c-3.23.75-6.26,2.06-8.97,3.81l-6.18-6.18-8.77,8.77,6.26,6.26c-1.71,2.73-2.96,5.78-3.65,9.03h-8.74v12.41h8.84c.75,3.23,2.06,6.26,3.81,8.97l-6.18,6.18,8.77,8.77,6.26-6.26c2.6,1.63,5.48,2.84,8.55,3.55v8.84h12.41v-8.74c3.25-.69,6.3-1.95,9.03-3.65l6.26,6.26,8.77-8.77-6.18-6.18c1.75-2.71,3.06-5.74,3.81-8.97h8.84Zm-36.5,11.93c-10.14,0-18.37-8.23-18.37-18.37s8.23-18.37,18.37-18.37,18.37,8.23,18.37,18.37-8.23,18.37-18.37,18.37Z"/>
  <rect x="155.5" y="49.63" width="147" height="16" transform="translate(107.82 -145.05) rotate(45)"/>
  <rect x="152.37" y="49.87" width="147" height="16" transform="translate(426.5 -60.92) rotate(135)"/>
</svg>